# xmcd
#
# Track frame offsets: 
#        150
#        9345
#        23057
#        38605
#        52857
#        73502
#        87350
#        104690
#        118735
#        132747
#        161690
#
# Disc length: 2362 seconds
#
# Revision: 8
# Processed by: cddbd v1.5.2PL0 Copyright (c) Steve Scherf et al.
# Submitted via: ExactAudioCopy v1.0b3
#
DISCID=8c09380b
DTITLE=Queen - News Of The World
DYEAR=1977
DGENRE=Rock
TTITLE0=We Will Rock You
TTITLE1=We Are The Champions
TTITLE2=Sheer Heart Attack
TTITLE3=All Dead, All Dead
TTITLE4=Spread Your Wings
TTITLE5=Fight From The Inside
TTITLE6=Get Down, Make Love
TTITLE7=Sleeping On The Sidewalk
TTITLE8=Who Needs You
TTITLE9=It's Late
TTITLE10=My Melancholy Blues
EXTD=
EXTT0=
EXTT1=
EXTT2=
EXTT3=
EXTT4=
EXTT5=
EXTT6=
EXTT7=
EXTT8=
EXTT9=
EXTT10=
PLAYORDER=
